<?xml version="1.0" encoding="UTF-8"?><svg id="svg2" xmlns="http://www.w3.org/2000/svg" xmlns:xlink="http://www.w3.org/1999/xlink" viewBox="0 0 580 580.01"><defs><style>.cls-1{fill:#00749a;}.cls-2{clip-path:url(#clippath);}.cls-3{fill:none;}</style><clipPath id="clippath"><rect class="cls-3" width="580" height="580.01"/></clipPath></defs><g class="cls-2"><g><path class="cls-1" d="M41.22,290c0,98.48,57.23,183.58,140.21,223.91L62.76,188.75c-13.8,30.94-21.54,65.18-21.54,101.25Z"/><path class="cls-1" d="M457.96,277.44c0-30.75-11.04-52.04-20.52-68.61-12.6-20.49-24.42-37.85-24.42-58.34,0-22.87,17.34-44.16,41.77-44.16,1.1,0,2.15,.14,3.23,.2-44.27-40.55-103.24-65.31-168.01-65.31-86.92,0-163.38,44.59-207.86,112.14,5.84,.18,11.35,.29,16.01,.29,26.02,0,66.31-3.16,66.31-3.16,13.41-.79,14.99,18.91,1.6,20.49,0,0-13.48,1.59-28.48,2.37l90.6,269.48,54.45-163.29-38.77-106.19c-13.4-.79-26.09-2.37-26.09-2.37-13.41-.79-11.83-21.28,1.57-20.49,0,0,41.08,3.16,65.53,3.16,26.02,0,66.3-3.16,66.3-3.16,13.42-.79,15,18.91,1.6,20.49,0,0-13.5,1.59-28.47,2.37l89.91,267.44,24.81-82.92c10.76-34.41,18.95-59.13,18.95-80.43Z"/><path class="cls-1" d="M294.37,311.76l-74.64,216.89c22.29,6.56,45.85,10.14,70.28,10.14,28.97,0,56.75-5.02,82.62-14.1-.68-1.06-1.28-2.19-1.77-3.43l-76.48-209.51Z"/><path class="cls-1" d="M508.3,170.64c1.07,7.92,1.67,16.44,1.67,25.58,0,25.25-4.71,53.63-18.92,89.11l-75.99,219.71c73.96-43.13,123.71-123.26,123.71-215.05,0-43.25-11.05-83.92-30.48-119.36Z"/><path class="cls-1" d="M290,0C130.1,0,0,130.09,0,290s130.09,290.02,290,290.02,290.02-130.09,290.02-290.02C580.02,130.09,449.91,0,290,0Zm0,566.71c-152.57,0-276.71-124.14-276.71-276.72S137.43,13.3,290,13.3s276.7,124.12,276.7,276.69-124.13,276.72-276.7,276.72Z"/></g></g></svg>